<?xml version="1.0" encoding="utf-8"?>
<!-- Generator: Adobe Illustrator 25.3.1, SVG Export Plug-In . SVG Version: 6.00 Build 0)  -->
<svg version="1.1" id="图层_1" xmlns="http://www.w3.org/2000/svg" xmlns:xlink="http://www.w3.org/1999/xlink" x="0px" y="0px"
	 viewBox="0 0 320 25" style="enable-background:new 0 0 320 25;" xml:space="preserve">
<style type="text/css">
	.st0{fill:#D46B14;}
</style>
<path class="st0" d="M5.1,18.7c0.1,0,0.3-0.1,0.4-0.2c0.1-0.1,0.2-0.5,0.2-0.8c0.2-1.1,0.8-4.6,1-5.9C7.4,9,8.5,5,8.8,4.7
	c0.4-0.4,4.1-1.9,6.4-2.5c1.5-0.4,1.7-0.5,1.7-0.9c0-0.1-0.1-0.2-0.2-0.3c-0.1-0.1-0.2-0.1-0.3-0.1c-0.3,0-0.8,0.1-1.8,0.4
	c-1.5,0.4-2.8,0.9-4.4,1.6C8.8,3.4,8,3.8,5.9,5c-2.2,1.3-3.1,1.7-4,1.7c-0.4,0-0.5,0-0.8-0.4C0.6,5.8,0.1,6,0.1,6.4
	c0,0.2,0.1,0.4,0.3,0.7c0.4,0.5,0.9,0.7,1.6,0.7c1.1,0,2.1-0.4,4-1.5c1-0.6,1.4-0.8,1.3-0.6c-0.1,0.1-1,3.7-1.4,5.2
	c-0.4,1.7-1,5.4-1.2,6.7c-0.1,0.6-0.1,0.8,0,1C4.8,18.7,4.9,18.7,5.1,18.7L5.1,18.7z M14,16c0.2,0,0.6-0.1,0.7-0.7
	c0.1-0.6,2.2-3.8,3-4.7c0.5-0.5,0.5-0.4,0,1c-0.4,1.4-0.6,2.4-0.5,2.8c0.1,0.4,0.5,1,0.8,1c0.7,0,1.7-0.7,3.1-2.4
	c0.5-0.6,0.8-1,0.8-1.2c0-0.5-0.5-0.7-0.9-0.4c-0.1,0.1-0.5,0.5-0.8,0.9c-0.7,0.9-1.7,1.8-1.9,1.8c-0.2,0-0.1-0.4,0.4-2.3
	c0.5-1.9,0.6-2.4,0.2-2.8c-0.2-0.2-0.3-0.3-0.5-0.3c-0.6,0-1.5,0.8-2.5,2.2c-0.3,0.4-0.5,0.7-0.6,0.7c-0.1,0,0.6-2.7,1.1-4.6
	c0.2-0.6,0.6-1.9,0.9-2.8c0.3-1,0.6-1.8,0.5-1.9C18,2.2,17.7,2,17.4,2c0,0-0.1,0-0.1,0c-0.2,0.1-0.3,0.2-0.8,1.7
	c-1.2,3.5-1.9,6-2.7,9.8c-0.2,1-0.3,1.5-0.3,1.8c0,0.2,0.1,0.3,0.2,0.4C13.8,15.9,13.9,16,14,16z"/>
<path class="st0" d="M23.3,9.7L23.3,9.7c-1.2,0-2.7,1.8-3,3.6c0,0.2-0.1,0.5-0.1,0.7c0,1,0.5,1.7,1.4,1.9c0.1,0,0.3,0,0.4,0
	c1.3,0,3.1-1.1,5.1-3c0.8-0.8,0.9-0.9,0.9-1.2c0-0.3-0.3-0.6-0.6-0.5c-0.1,0-0.6,0.4-1.1,0.9c-1.7,1.6-3.1,2.5-4.1,2.6
	c-0.4,0-0.6,0-0.7-0.2c-0.2-0.2-0.3-0.5-0.2-0.8l0.8-0.4c1.4-0.7,2.2-1.6,2.2-2.6c0-0.6-0.2-0.9-0.7-1C23.5,9.7,23.4,9.7,23.3,9.7z
	 M23.1,10.9c0.4,0-0.5,1.1-1,1.4c-0.4,0.2-0.4,0.1-0.1-0.3C22.3,11.6,23,10.9,23.1,10.9z M32.3,17.8C32.3,17.8,32.4,17.8,32.3,17.8
	c0.4,0,0.5-0.2,0.6-0.9c0.1-0.6,0.7-2.1,1.4-3.3c0.8-1.5,2.1-2.9,2.6-3c0.5,0,0.5,0.8,0.1,1.8c-0.5,1.2-1.2,2-2.2,2.2
	c-0.6,0.1-0.8,0.3-0.8,0.6c0,0.4,0.3,0.5,0.9,0.5c1-0.1,2-0.9,2.7-2.2c0.5-0.8,0.7-1.6,0.7-2.3c0-1.1-0.5-1.8-1.5-1.7
	c-0.2,0-0.6,0.1-0.8,0.2c-0.5,0.3-1.3,1-1.6,1.5c-0.1,0.2-0.3,0.4-0.3,0.3c-0.1-0.1,1.2-3.6,2.2-6.1c0.5-1.3,0.9-2.5,0.9-2.6
	c0-0.2-0.3-0.5-0.5-0.5h0c-0.3,0-0.6,0.5-1.4,2.7c-1.2,3-1.9,5.1-2.5,6.8c-0.6,2.1-1.1,4.5-1.1,5.2c0,0,0,0.1,0,0.1
	c0,0.2,0.1,0.3,0.2,0.4C32,17.7,32.2,17.8,32.3,17.8L32.3,17.8z M41.2,9.7L41.2,9.7c-1.2,0-2.7,1.8-3,3.6c0,0.2-0.1,0.5-0.1,0.7
	c0,1,0.5,1.7,1.4,1.9c0.1,0,0.3,0.1,0.4,0.1c1.3,0,3.1-1.1,5.1-3c0.8-0.8,0.9-0.9,0.9-1.2c0-0.3-0.3-0.6-0.6-0.5
	c-0.1,0-0.6,0.4-1.1,0.9c-1.7,1.6-3.1,2.5-4.1,2.6c-0.4,0-0.6,0-0.7-0.2c-0.2-0.2-0.3-0.5-0.2-0.8l0.8-0.4c1.4-0.7,2.2-1.6,2.2-2.6
	c0-0.6-0.2-0.9-0.7-1C41.4,9.7,41.3,9.7,41.2,9.7z M41,10.9c0.4,0-0.5,1.1-1,1.4c-0.4,0.2-0.4,0.1-0.1-0.3
	C40.1,11.6,40.9,10.9,41,10.9z"/>
<path class="st0" d="M47.9,8.8L47.9,8.8c-0.2,0-0.4,0.1-0.8,0.4c-1.3,1-2,2-2.1,2.9c-0.1,0.7,0.1,1.1,0.6,1.8
	c0.2,0.3,0.3,0.5,0.3,0.5c0,0-0.2,0.2-0.4,0.4c-0.6,0.7-1,1.4-1,1.9c0,0.3,0.1,0.6,0.3,0.8c0.2,0.2,0.5,0.3,0.8,0.3
	c0.2,0,0.3,0,0.5-0.1c0.4-0.2,1-0.6,1.3-1c0.3-0.4,0.4-1.3,0.2-1.7c-0.1-0.4-0.1-0.5,0-0.6c1.3-0.8,2.3-1.4,3-1.8
	c0.5-0.2,0.9-0.5,0.9-0.6c0-0.1,0-0.1,0-0.2c0-0.3-0.2-0.5-0.5-0.5c-0.3,0-1.5,0.5-2.9,1.4c-1.5,1-1.4,0.9-1.6,0.8
	c-0.1-0.1-0.3-0.3-0.4-0.5c-0.4-0.8-0.1-1.6,1.1-2.6c1-0.8,1-0.9,0.8-1.3C48.2,8.9,48,8.8,47.9,8.8z M46.6,15.4c0.3,0,0,0.7-0.3,1
	c-0.1,0.1-0.3,0.2-0.4,0.3c-0.1,0.1-0.2,0-0.1-0.1C45.8,16.3,46.5,15.3,46.6,15.4z"/>
<path class="st0" d="M51.5,17.4c0.8,0,1.6-0.5,2.9-1.8c1.4-1.4,3.2-3.6,3.2-3.9c0-0.3-0.3-0.5-0.5-0.5c-0.2,0-0.4,0.2-1.2,1.2
	c-1.9,2.3-3.9,4.1-4.4,3.9c-0.1-0.1-0.2-0.2-0.1-1c0-0.6,0.1-1.2,0.3-1.8c0.4-1.3,1.8-5.1,2.3-6.3l0.5-1.1L54.8,6
	c0.2,0,0.8-0.1,1.4-0.1c1.1,0,1.4-0.1,1.4-0.5c0-0.5-0.2-0.6-1.5-0.6H55l0.1-0.2c0.1-0.2,0.2-0.5,0.3-0.7c0.1-0.3,0.3-0.6,0.3-0.7
	c0-0.3-0.2-0.5-0.5-0.5c0,0-0.1,0-0.1,0c-0.3,0-0.3,0.1-0.8,1.1C53.9,4.6,53.7,5,53.5,5c-0.1,0-0.6,0.1-1.1,0.2
	c-1.2,0.2-1.5,0.3-1.7,0.6c-0.1,0.2-0.1,0.3,0,0.5c0.1,0.2,0.2,0.2,0.6,0.2c0.4,0,0.7-0.1,1.1-0.2c0.3-0.1,0.6-0.1,0.7-0.1
	c0,0-0.1,0.5-0.4,1.1c-1.1,2.5-2.3,6.5-2.5,7.9c0,0.1,0,0.3,0,0.4c0,0.6,0.2,1.2,0.5,1.5c0.2,0.2,0.4,0.3,0.6,0.3
	C51.3,17.4,51.4,17.4,51.5,17.4z M63,16.1c1.1,0,2.8-1,5.2-3.1c0.6-0.5,1.1-1,1.2-1.1c0.1-0.1,0.1-0.2,0.1-0.3c0-0.1,0-0.1-0.1-0.2
	c-0.1-0.2-0.2-0.3-0.4-0.3c-0.2,0-0.4,0.1-1.2,0.8c-2.1,1.8-3.9,3-4.6,3c-0.3,0-0.4,0-0.4-0.2c-0.2-0.8,0.8-3.1,1.9-4.3
	c0.6-0.7,1-0.9,1.6-0.8c0.3,0,0.4,0,0.5-0.2c0.2-0.3,0.1-0.6-0.1-0.8c-0.1-0.1-0.4-0.1-0.6-0.1c-0.1,0-0.1,0-0.2,0
	c-1.3,0-3.2,2.1-4,4.5c-0.2,0.5-0.3,1-0.3,1.5c0,0.8,0.3,1.4,0.9,1.6C62.7,16.1,62.9,16.1,63,16.1z"/>
<path class="st0" d="M70.7,9.5c-0.2,0-0.3,0-0.5,0.1c-0.2,0.1-0.4,0.3-0.7,0.6c-0.2,0.3-0.4,0.5-0.5,0.6c-0.1,0.1-0.3,0.5-0.4,0.9
	c-0.2,0.7-0.3,1.4-0.3,1.9c0,0.7,0.2,1.2,0.7,1.4c0.1,0.1,0.3,0.1,0.4,0.1c0.4,0,0.9-0.3,1.4-0.9l0.3-0.4l0.7-0.1
	c1.2-0.1,2.9-1.2,3.1-1.8c0-0.1,0.1-0.2,0.1-0.2c0-0.1,0-0.2-0.1-0.2c-0.2-0.3-0.6-0.2-1.2,0.3c-0.7,0.5-1.7,0.9-1.9,0.8
	c-0.1,0-0.1-0.1,0-0.5C72.1,10.6,71.6,9.5,70.7,9.5z M70.6,10.6c0.2,0,0.2,0.5,0.1,1.1c-0.2,0.7-0.4,0.6-0.5-0.1
	C70.2,11.2,70.4,10.7,70.6,10.6z M69.5,12.9c0.1,0,0.2,0.1,0.3,0.2c0.2,0.2,0.2,0.2,0,0.5c-0.3,0.4-0.4,0.3-0.4-0.1
	C69.4,13.1,69.4,12.9,69.5,12.9z"/>
<path class="st0" d="M74.5,15.1c0.2,0,0.5-0.1,0.7-0.2c0.4-0.3,1-1,2.3-2.9c0.6-0.9,1.1-1.6,1.1-1.5c0,0-0.1,0.5-0.3,1.1
	c-0.4,1.5-0.3,2.2,0.4,2.3c0.4,0.1,0.9-0.2,1.7-0.9c0.4-0.3,0.7-0.6,0.7-0.6c0,0,0.1,0.2,0.1,0.5c0,0.7,0.1,1.1,0.5,1.4
	c0.4,0.4,1.2,0.3,2.8-1.1c0.2-0.2,0.6-0.5,0.9-0.8c0.1-0.1,0.1-0.2,0.1-0.3c0-0.4-0.3-0.8-0.8-0.3L84,12c-0.4,0.3-1.2,1-1.3,1.1
	c-0.4,0.2-0.4,0.2-0.4-0.7c0-1-0.3-1.4-0.9-1.4c-0.4,0-0.7,0.2-1.4,0.8c-0.4,0.3-0.7,0.5-0.7,0.5c0,0,0.2-0.7,0.4-1.5
	c0.7-2.2,0.7-2.6,0.1-2.8c-0.1,0-0.1,0-0.2,0c-0.5,0-1.2,0.8-2.9,3.3c-0.6,0.9-1.3,1.9-1.4,2l-0.3,0.3l0.1-0.4c0.1-0.5,0.6-2,1-3.1
	c0.2-0.5,0.4-0.9,0.4-1c0-0.4-0.6-0.6-0.9-0.3c-0.3,0.4-1.3,3-1.5,4.2c-0.1,0.4-0.1,0.8-0.1,1c0,0.4,0.1,0.7,0.3,0.9
	C74.2,15,74.3,15.1,74.5,15.1z"/>
<path class="st0" d="M86,7.4c-0.1,0-0.2,0-0.2,0.1c-0.2,0.1-0.4,0.7-1.3,3.7c-1.3,4.3-2.2,7.4-2.6,9.5c-0.1,0.5-0.2,0.8-0.2,1
	c0,0.2,0.1,0.3,0.2,0.4c0.1,0.1,0.3,0.2,0.3,0.2c0.2,0,0.6-0.4,0.6-0.6c0-0.4,0.6-2.7,1.1-4.8c0.6-2.3,0.8-2.7,1.9-4.2
	c1.4-2,3.3-3.4,3.9-2.9c0.2,0.1,0.2,0.2,0.2,0.6c0,0.9,0,0.9-0.8,1.1c-1,0.3-1.7,0.6-2.3,1c-1.4,0.9-1.9,2.1-1.2,2.9
	c1,1,3.4-0.2,4.6-2.5l0.3-0.6l1.2-0.2c0.7-0.2,1.2-0.2,1.5-0.3c0.2-0.1,0.2-0.3,0.2-0.4c0-0.1,0-0.2-0.1-0.3
	c-0.1-0.1-0.5-0.2-1.1-0.1c-0.4,0-0.8,0.1-1,0.1l-0.3,0.1l0-0.7c0-0.6,0-0.8-0.2-1.1c-0.5-0.8-1.4-1-2.5-0.5
	c-0.6,0.3-1.8,1.2-2.2,1.7c-0.4,0.5-0.4,0.3,0.1-1.2c0.4-1.3,0.5-1.6,0.3-1.8C86.3,7.5,86.2,7.4,86,7.4L86,7.4z M89,12.7
	c0.2,0,0.2,0,0,0.3c-0.4,0.5-1,1.1-1.5,1.4c-0.4,0.2-0.8,0.3-0.9,0.2c-0.1-0.1,0.2-0.5,0.5-0.8C87.4,13.4,88.7,12.7,89,12.7z"/>
<path class="st0" d="M95.2,9.7L95.2,9.7c-1.2,0-2.7,1.8-3,3.6c0,0.2-0.1,0.5-0.1,0.7c0,1,0.5,1.7,1.4,1.9c0.1,0,0.3,0,0.4,0
	c1.3,0,3.1-1.1,5.1-3c0.8-0.8,0.9-0.9,0.9-1.2c0-0.3-0.3-0.6-0.6-0.5c-0.1,0-0.6,0.4-1.1,0.9c-1.7,1.6-3.1,2.5-4.1,2.6
	c-0.4,0-0.6,0-0.7-0.2c-0.2-0.2-0.3-0.5-0.2-0.8l0.8-0.4c1.4-0.7,2.2-1.6,2.2-2.6c0-0.6-0.2-0.9-0.7-1C95.4,9.7,95.3,9.7,95.2,9.7
	L95.2,9.7z M95,10.9c0.4,0-0.4,1.1-1,1.4c-0.4,0.2-0.4,0.1-0.1-0.3C94.1,11.6,94.8,10.9,95,10.9z"/>
<path class="st0" d="M99.6,17.4c0.8,0,1.6-0.5,2.9-1.8c1.4-1.4,3.2-3.6,3.2-3.9c0-0.3-0.3-0.5-0.5-0.5c-0.2,0-0.4,0.2-1.2,1.2
	c-1.9,2.3-3.9,4.1-4.4,3.9c-0.1-0.1-0.2-0.2-0.1-1c0-0.6,0.1-1.2,0.3-1.8c0.4-1.3,1.8-5.1,2.3-6.3l0.5-1.1L103,6
	c0.2,0,0.8-0.1,1.4-0.1c1.1,0,1.4-0.1,1.4-0.5c0-0.5-0.2-0.6-1.5-0.6h-1.2l0.1-0.2c0.1-0.2,0.2-0.5,0.3-0.7c0.1-0.3,0.3-0.6,0.3-0.7
	c0-0.3-0.2-0.5-0.5-0.5c0,0-0.1,0-0.1,0c-0.3,0-0.3,0.1-0.8,1.1C102,4.6,101.8,5,101.7,5c-0.1,0-0.6,0.1-1.1,0.2
	c-1.2,0.2-1.5,0.3-1.7,0.6c-0.1,0.2-0.1,0.3,0,0.5c0.1,0.2,0.2,0.2,0.6,0.2c0.4,0,0.7-0.1,1.1-0.2c0.3-0.1,0.6-0.1,0.7-0.1
	c0,0-0.1,0.5-0.4,1.1c-1.1,2.5-2.3,6.5-2.5,7.9c0,0.1,0,0.3,0,0.4c0,0.6,0.2,1.2,0.5,1.5c0.2,0.2,0.4,0.3,0.6,0.3
	C99.4,17.4,99.5,17.4,99.6,17.4L99.6,17.4z"/>
<path class="st0" d="M105.2,16.3c0.4,0,1-0.3,1.7-0.9c0.6-0.5,2.3-2.8,2.7-3.4c0-0.1,0.1-0.2,0.1-0.3c0-0.3-0.3-0.6-0.7-0.5
	c-0.1,0-0.5,0.5-0.9,1c-0.8,1-2.4,2.9-2.6,2.8c-0.1,0-0.1-0.1-0.1-0.6c0.1-0.7,0.3-1.7,0.8-3c0.2-0.7,0.4-1.2,0.4-1.3
	c-0.1-0.3-0.4-0.5-0.7-0.4c-0.2,0.1-0.3,0.3-0.6,0.9c-0.7,1.8-1,3.1-1,4c0,0.7,0.2,1.1,0.6,1.3C104.9,16.2,105,16.3,105.2,16.3z
	 M107.1,8.6c0-0.3-0.2-0.5-0.5-0.5c-0.1,0-0.1,0-0.2,0.1c-0.4,0.2-0.4,0.5-0.2,0.8C106.5,9.2,107.1,9,107.1,8.6z"/>
<path class="st0" d="M109.3,17.4c0.8,0,1.6-0.5,2.9-1.8c1.4-1.4,3.2-3.6,3.2-3.9c0-0.3-0.3-0.5-0.5-0.5c-0.2,0-0.4,0.2-1.2,1.2
	c-1.9,2.3-3.9,4.1-4.4,3.9c-0.1-0.1-0.2-0.2-0.1-1c0-0.6,0.1-1.2,0.3-1.8c0.4-1.3,1.8-5.1,2.3-6.3l0.5-1.1l0.4-0.1
	c0.2,0,0.8-0.1,1.4-0.1c1.1,0,1.4-0.1,1.4-0.5c0-0.5-0.2-0.6-1.5-0.6h-1.2l0.1-0.2c0.1-0.2,0.2-0.5,0.3-0.7c0.1-0.3,0.3-0.6,0.3-0.7
	c0-0.3-0.2-0.5-0.5-0.5c0,0-0.1,0-0.1,0c-0.3,0-0.3,0.1-0.8,1.1c-0.4,0.8-0.6,1.1-0.7,1.1c-0.1,0-0.6,0.1-1.1,0.2
	c-1.2,0.2-1.5,0.3-1.7,0.6c-0.1,0.2-0.1,0.3,0,0.5c0.1,0.2,0.2,0.2,0.6,0.2c0.4,0,0.7-0.1,1.1-0.2c0.3-0.1,0.6-0.1,0.7-0.1
	c0,0-0.1,0.5-0.4,1.1c-1.1,2.5-2.3,6.5-2.5,7.9c0,0.1,0,0.3,0,0.4c0,0.6,0.2,1.2,0.5,1.5c0.2,0.2,0.4,0.3,0.6,0.3
	C109.2,17.4,109.3,17.4,109.3,17.4L109.3,17.4z"/>
<path class="st0" d="M115,16.3c0.4,0,1-0.3,1.7-0.9c0.6-0.5,2.3-2.8,2.7-3.4c0-0.1,0.1-0.2,0.1-0.3c0-0.3-0.3-0.6-0.7-0.5
	c-0.1,0-0.5,0.5-0.9,1c-0.8,1-2.4,2.9-2.6,2.8c-0.1,0-0.1-0.1-0.1-0.6c0.1-0.7,0.3-1.7,0.8-3c0.2-0.7,0.4-1.2,0.4-1.3
	c-0.1-0.3-0.4-0.5-0.7-0.4c-0.2,0.1-0.3,0.3-0.6,0.9c-0.7,1.8-1,3.1-1,4c0,0.7,0.2,1.1,0.6,1.3C114.6,16.2,114.8,16.3,115,16.3z
	 M116.9,8.6c0-0.3-0.2-0.5-0.5-0.5c-0.1,0-0.1,0-0.2,0.1c-0.4,0.2-0.4,0.5-0.2,0.8C116.2,9.2,116.9,9,116.9,8.6z"/>
<path class="st0" d="M119.6,16.4c0.4,0,0.8-0.3,1.2-0.9c0.2-0.3,0.8-1.2,1.2-2.1c0.6-1,1.2-2.1,1.8-3.1c0.5-0.9,0.9-1.7,0.9-1.8
	c0-0.3-0.2-0.5-0.5-0.5c-0.1,0-0.2,0-0.3,0.1c-0.1,0.1-1.8,2.9-3,5.1c-0.8,1.4-1.2,2-1.2,1.9c-0.1-0.1-0.2-1.5-0.1-2.8
	c0.1-1.2,0.1-1.3-0.1-1.5c-0.2-0.2-0.6-0.2-0.8,0c-0.2,0.2-0.3,1.5-0.3,2.7c0,0.2,0,0.4,0,0.6c0.1,1.2,0.2,1.8,0.6,2.1
	C119.3,16.3,119.4,16.4,119.6,16.4z M126.8,9.7L126.8,9.7c-1.2,0-2.7,1.8-3,3.6c0,0.2-0.1,0.5-0.1,0.7c0,1,0.5,1.7,1.4,1.9
	c0.1,0,0.3,0.1,0.4,0.1c1.3,0,3.1-1.1,5.1-3c0.8-0.8,0.9-0.9,0.9-1.2c0-0.3-0.3-0.6-0.6-0.5c-0.1,0-0.6,0.4-1.1,0.9
	c-1.7,1.6-3.1,2.5-4.1,2.6c-0.4,0-0.6,0-0.7-0.2c-0.2-0.2-0.3-0.5-0.2-0.8l0.8-0.4c1.4-0.7,2.2-1.6,2.2-2.6c0-0.6-0.2-0.9-0.7-1
	C127.1,9.7,126.9,9.7,126.8,9.7z M126.7,10.9c0.4,0-0.4,1.1-1,1.4c-0.4,0.2-0.4,0.1-0.1-0.3C125.8,11.6,126.5,10.9,126.7,10.9z
	 M136.9,16.1c1.1,0,2.8-1,5.2-3.1c0.6-0.5,1.1-1,1.2-1.1c0.1-0.1,0.1-0.2,0.1-0.3c0-0.1,0-0.1-0.1-0.2c-0.1-0.2-0.2-0.3-0.4-0.3
	c-0.2,0-0.4,0.1-1.2,0.8c-2.1,1.8-3.9,3-4.6,3c-0.3,0-0.4,0-0.4-0.2c-0.2-0.8,0.8-3.1,1.9-4.3c0.6-0.7,1-0.9,1.6-0.8
	c0.3,0,0.4,0,0.5-0.2c0.2-0.3,0.1-0.6-0.1-0.8c-0.1-0.1-0.4-0.1-0.6-0.1c-0.1,0-0.1,0-0.2,0c-1.3,0-3.2,2.1-4,4.5
	c-0.2,0.5-0.3,1-0.3,1.5c0,0.8,0.3,1.4,0.9,1.6C136.6,16.1,136.8,16.1,136.9,16.1L136.9,16.1z"/>
<path class="st0" d="M144.6,9.5c-0.2,0-0.3,0-0.5,0.1c-0.2,0.1-0.4,0.3-0.6,0.6c-0.2,0.3-0.4,0.5-0.5,0.6c-0.1,0.1-0.3,0.5-0.4,0.9
	c-0.2,0.7-0.3,1.4-0.3,1.9c0,0.7,0.2,1.2,0.6,1.4c0.1,0.1,0.3,0.1,0.4,0.1c0.4,0,0.9-0.3,1.4-0.9l0.3-0.4l0.7-0.1
	c1.2-0.1,2.9-1.2,3.1-1.8c0-0.1,0.1-0.2,0.1-0.2c0-0.1,0-0.2-0.1-0.2c-0.2-0.3-0.6-0.2-1.2,0.3c-0.7,0.5-1.7,0.9-1.9,0.8
	c-0.1,0-0.1-0.1,0-0.5C146,10.6,145.5,9.5,144.6,9.5L144.6,9.5z M144.5,10.6c0.2,0,0.2,0.5,0.1,1.1c-0.2,0.7-0.4,0.6-0.5-0.1
	C144.1,11.2,144.3,10.7,144.5,10.6z M143.4,12.9c0.1,0,0.2,0.1,0.3,0.2c0.2,0.2,0.2,0.2,0,0.5c-0.3,0.4-0.4,0.3-0.4-0.1
	C143.3,13.1,143.3,12.9,143.4,12.9L143.4,12.9z"/>
<path class="st0" d="M156.2,2.7c-0.2,0-0.4,0.2-0.5,0.4c-0.1,0.2-0.4,0.9-0.7,1.5c-0.7,1.9-1.8,3.9-2.6,5.2l-0.3,0.4l-0.5-0.2
	c-0.4-0.1-0.6-0.2-1-0.1c-1.1,0.2-2.4,1.3-3,2.4c-0.2,0.5-0.4,0.9-0.4,1.3c0,0.6,0.3,1,0.8,1.2c0.9,0.3,2.3-0.5,3.8-2.4
	c0.4-0.5,0.8-1,0.8-1c0,0-0.1,0.7-0.4,1.6c-0.4,1.6-0.8,4-0.8,4.3c0,0.1,0.1,0.2,0.2,0.3c0.1,0.1,0.3,0.2,0.4,0.2
	c0.3,0,0.5-0.3,0.7-1.2c0.7-4,1.7-7.3,3.4-11.4c0.6-1.4,0.7-1.8,0.7-2c0,0,0-0.1,0-0.1c-0.1-0.1-0.2-0.2-0.3-0.3
	C156.3,2.7,156.3,2.7,156.2,2.7L156.2,2.7z M151,11c0.2,0,0.3,0,0.3,0.1c0.1,0.2-1.5,1.9-2.2,2.4c-0.8,0.5-1.1,0.3-0.6-0.6
	c0.3-0.6,1-1.4,1.6-1.7C150.4,11.1,150.8,11,151,11z M155.6,16.3c0.4,0,1-0.3,1.7-0.9c0.6-0.5,2.3-2.8,2.7-3.4
	c0-0.1,0.1-0.2,0.1-0.3c0-0.3-0.3-0.6-0.7-0.5c-0.1,0-0.5,0.5-0.9,1c-0.8,1-2.4,2.9-2.6,2.8c-0.1,0-0.1-0.1-0.1-0.6
	c0.1-0.7,0.3-1.7,0.8-3c0.2-0.7,0.4-1.2,0.4-1.3c-0.1-0.3-0.4-0.5-0.7-0.4c-0.2,0.1-0.3,0.3-0.6,0.9c-0.7,1.8-1,3.1-1,4
	c0,0.7,0.2,1.1,0.6,1.3C155.3,16.2,155.4,16.3,155.6,16.3L155.6,16.3z M157.5,8.6c0-0.3-0.2-0.5-0.5-0.5c-0.1,0-0.1,0-0.2,0.1
	c-0.4,0.2-0.4,0.5-0.2,0.8C156.9,9.2,157.5,9,157.5,8.6z"/>
<path class="st0" d="M159.4,15c0.5,0,1.2-0.7,2.5-2.4c1-1.3,1.7-2,1.7-2c0,0,0,0.5-0.1,1c-0.3,1.7-0.2,2.4,0.4,2.7
	c0.3,0.2,0.4,0.2,0.8,0.1c0.4-0.1,1.2-0.5,2.8-2.3c0.1-0.1,0.1-0.2,0.1-0.3c0-0.4-0.3-0.8-0.7-0.5c-0.1,0.1-0.2,0.2-0.4,0.4
	c-0.7,0.7-1.7,1.6-1.9,1.6c-0.2,0-0.1-0.4,0.1-1.7c0.1-0.6,0.2-1.3,0.2-1.5c0-0.7-0.5-1.1-1.1-0.9c-0.7,0.2-1.5,1-3.2,3.3
	c-0.4,0.5-0.7,0.9-0.7,0.8c0-0.1,0.4-1.6,0.8-2.8c0.2-0.5,0.3-1.1,0.3-1.2c0-0.3-0.2-0.5-0.5-0.5c0,0,0,0,0,0
	c-0.1,0-0.3,0.1-0.4,0.2c-0.2,0.2-1.1,2.9-1.3,3.9c-0.1,0.4-0.1,0.7-0.1,1c0,0.5,0.1,0.8,0.4,1C159.2,15,159.3,15,159.4,15z"/>
<path class="st0" d="M170,8.9L170,8.9c-0.1,0-0.2,0-0.3,0c-0.7,0-1.4,0.4-2.1,1.1c-0.7,0.7-1.1,1.4-1.1,2.1c0,0.4,0,0.5,0.3,0.7
	c0.7,0.6,1.9,0.2,3.5-1.2c0.3-0.3,0.6-0.5,0.6-0.4c0.1,0.1-0.1,2.4-0.2,3.5c-0.1,0.4-0.1,0.8-0.2,0.9c-0.1,0.1-0.4,0.2-0.8,0.3
	c-1.9,0.7-3.8,1.8-5,3c-1.2,1.2-1.7,2.3-1.7,3.3c0,0.3,0,0.6,0.1,0.8c0.2,0.6,0.8,1.2,1.6,1.4c0.2,0,0.5,0.1,0.8,0.1
	c0.5,0,1,0,1.3-0.1c2.2-0.6,3.8-3.1,4.7-7.1c0.4-1.7,0.7-4.5,0.7-6.3c0-0.2,0-0.3,0-0.4c0-0.8-0.1-0.9-0.3-1.1
	c-0.2-0.2-0.3-0.2-0.6-0.2c-0.3,0-0.4,0-0.7-0.2C170.3,9,170.2,9,170,8.9L170,8.9z M169.7,10c0.2,0,0.3,0,0.3,0.2
	c0.1,0.1,0,0.2-0.2,0.4c-0.4,0.4-1.2,1-1.7,1.2c-0.3,0.1-0.5,0.2-0.5,0.2c-0.1,0,0-0.2,0.1-0.6C168.2,10.7,169.2,10,169.7,10
	L169.7,10z M170.3,16.9c0.1,0,0.1,0.1,0,0.2c-0.1,0.5-0.7,2.3-0.9,3c-0.6,1.5-1.5,2.6-2.5,3.1c-0.4,0.2-0.7,0.3-1.2,0.3
	c-0.7,0-1.1-0.1-1.4-0.5c-0.2-0.2-0.2-0.3-0.2-0.8c0-1.6,2.2-3.8,5.1-4.9C169.8,17.1,170.1,16.9,170.3,16.9z M180.2,7.4
	c-0.1,0-0.2,0-0.2,0.1c-0.2,0.1-0.4,0.7-1.3,3.7c-1.3,4.3-2.2,7.4-2.6,9.5c-0.1,0.5-0.1,0.8-0.1,1c0,0.2,0.1,0.3,0.2,0.4
	c0.1,0.1,0.3,0.2,0.3,0.2c0.2,0,0.6-0.4,0.6-0.6c0-0.4,0.6-2.7,1.1-4.8c0.6-2.3,0.8-2.7,1.9-4.2c1.4-2,3.3-3.4,3.9-2.9
	c0.2,0.1,0.2,0.2,0.2,0.6c0,0.9,0,0.9-0.8,1.1c-1,0.3-1.7,0.6-2.3,1c-1.4,0.9-1.9,2.1-1.1,2.9c1,1,3.4-0.2,4.6-2.5l0.3-0.6l1.2-0.2
	c0.7-0.2,1.2-0.2,1.5-0.3c0.2-0.1,0.2-0.3,0.2-0.4c0-0.1,0-0.2-0.1-0.3c-0.1-0.1-0.5-0.2-1.1-0.1c-0.4,0-0.8,0.1-1,0.1l-0.3,0.1
	l0-0.7c0-0.6,0-0.8-0.2-1.1c-0.5-0.8-1.4-1-2.5-0.5c-0.6,0.3-1.8,1.2-2.2,1.7c-0.4,0.5-0.4,0.3,0.1-1.2c0.4-1.3,0.5-1.6,0.3-1.8
	C180.5,7.5,180.3,7.4,180.2,7.4z M183.2,12.7c0.2,0,0.2,0,0,0.3c-0.4,0.5-1,1.1-1.5,1.4c-0.4,0.2-0.8,0.3-0.9,0.2
	c-0.1-0.1,0.2-0.5,0.5-0.8C181.6,13.4,182.9,12.7,183.2,12.7z"/>
<path class="st0" d="M186.6,16.6c0.1,0,0.2,0,0.4-0.1c0.3-0.2,0.8-0.9,1.8-2.8c1-1.9,1.6-3,2.4-3.9c0.9-1.1,1.6-1.7,1.3-1
	c-0.2,0.5,0,0.9,0.4,0.9c0.3,0,0.5-0.2,0.7-0.8c0.1-0.3,0.2-0.6,0.2-0.9c0-0.4-0.2-0.7-0.5-0.9c-0.1,0-0.2-0.1-0.3-0.1
	c-0.5,0-1.2,0.4-2,1.4c-1,1-2,2.7-3.1,4.8c-0.3,0.5-0.5,0.9-0.5,0.9c-0.1-0.1,0.4-1.6,1-3.1c0.6-1.7,0.6-1.8,0.2-2.1
	c-0.4-0.2-0.6,0.1-1.1,1.3c-1,2.6-1.4,4.2-1.4,5.1c0,0.5,0.1,0.8,0.4,1C186.4,16.6,186.5,16.6,186.6,16.6L186.6,16.6z M194.8,9.5
	c-0.2,0-0.3,0-0.5,0.1c-0.2,0.1-0.4,0.3-0.6,0.6c-0.2,0.3-0.4,0.5-0.5,0.6c-0.1,0.1-0.3,0.5-0.4,0.9c-0.2,0.7-0.3,1.4-0.3,1.9
	c0,0.7,0.2,1.2,0.6,1.4c0.1,0.1,0.3,0.1,0.4,0.1c0.4,0,0.9-0.3,1.4-0.9l0.3-0.4l0.7-0.1c1.2-0.1,2.9-1.2,3.1-1.8
	c0-0.1,0.1-0.2,0.1-0.2c0-0.1,0-0.2-0.1-0.2c-0.2-0.3-0.6-0.2-1.2,0.3c-0.7,0.5-1.7,0.9-1.9,0.8c-0.1,0-0.1-0.1,0-0.5
	C196.2,10.6,195.7,9.5,194.8,9.5L194.8,9.5z M194.7,10.6c0.2,0,0.2,0.5,0.1,1.1c-0.2,0.7-0.4,0.6-0.5-0.1
	C194.3,11.2,194.5,10.7,194.7,10.6z M193.6,12.9c0.1,0,0.2,0.1,0.3,0.2c0.2,0.2,0.2,0.2,0,0.5c-0.3,0.4-0.4,0.3-0.4-0.1
	C193.5,13.1,193.5,12.9,193.6,12.9L193.6,12.9z"/>
<path class="st0" d="M201.6,8.9L201.6,8.9c-0.1,0-0.2,0-0.3,0c-0.7,0-1.4,0.4-2.1,1.1c-0.7,0.7-1.1,1.4-1.1,2.1c0,0.4,0,0.5,0.3,0.7
	c0.7,0.6,1.9,0.2,3.5-1.2c0.3-0.3,0.6-0.5,0.6-0.4c0.1,0.1-0.1,2.4-0.2,3.5c-0.1,0.4-0.1,0.8-0.2,0.9c-0.1,0.1-0.4,0.2-0.8,0.3
	c-1.9,0.7-3.8,1.8-5,3c-1.2,1.2-1.7,2.3-1.7,3.3c0,0.3,0,0.6,0.1,0.8c0.2,0.6,0.8,1.2,1.6,1.4c0.2,0,0.5,0.1,0.8,0.1
	c0.5,0,1,0,1.3-0.1c2.2-0.6,3.8-3.1,4.7-7.1c0.4-1.7,0.7-4.5,0.7-6.3c0-0.2,0-0.3,0-0.4c0-0.8-0.1-0.9-0.3-1.1
	c-0.2-0.2-0.3-0.2-0.6-0.2c-0.3,0-0.4,0-0.7-0.2C201.9,9,201.8,9,201.6,8.9L201.6,8.9z M201.3,10c0.2,0,0.3,0,0.3,0.2
	c0.1,0.1,0,0.2-0.2,0.4c-0.4,0.4-1.2,1-1.7,1.2c-0.3,0.1-0.5,0.2-0.5,0.2c-0.1,0,0-0.2,0.1-0.6C199.8,10.7,200.8,10,201.3,10
	L201.3,10z M201.9,16.9c0.1,0,0.1,0.1,0,0.2c-0.1,0.5-0.7,2.3-0.9,3c-0.6,1.5-1.5,2.6-2.5,3.1c-0.4,0.2-0.7,0.3-1.2,0.3
	c-0.7,0-1.1-0.1-1.4-0.5c-0.2-0.2-0.2-0.3-0.2-0.8c0-1.6,2.2-3.8,5.1-4.9C201.4,17.1,201.7,16.9,201.9,16.9z M204.2,16.6
	c0.1,0,0.2,0,0.4-0.1c0.3-0.2,0.8-0.9,1.8-2.8c1-1.9,1.6-3,2.4-3.9c0.9-1.1,1.6-1.7,1.3-1c-0.2,0.5,0,0.9,0.4,0.9
	c0.3,0,0.5-0.2,0.7-0.8c0.1-0.3,0.2-0.6,0.2-0.9c0-0.4-0.2-0.7-0.5-0.9c-0.1,0-0.2-0.1-0.3-0.1c-0.5,0-1.2,0.4-2,1.4
	c-1,1-2,2.7-3.1,4.8c-0.3,0.5-0.5,0.9-0.5,0.9c-0.1-0.1,0.4-1.6,1-3.1c0.6-1.7,0.6-1.8,0.2-2.1c-0.4-0.2-0.6,0.1-1.1,1.3
	c-1,2.6-1.4,4.2-1.4,5.1c0,0.5,0.1,0.8,0.4,1C204,16.6,204.1,16.6,204.2,16.6L204.2,16.6z M214.7,9.6c-0.2,0-0.3,0.1-0.5,0.2
	c-0.3,0.2-0.3,0.2-0.7,0.1c-0.8-0.3-1.7,0.1-2.6,1c-0.6,0.6-1.1,1.4-1.1,2c0,0.1,0,0.2,0,0.3c0,0.2,0.1,0.3,0.3,0.5
	c0.2,0.2,0.4,0.3,0.5,0.3c0.5,0,1.3-0.4,2.3-1.3c0.3-0.2,0.5-0.4,0.5-0.4c0,0-0.1,0.3-0.1,0.7c-0.2,0.9-0.3,1.9-0.2,2.4
	c0.1,0.2,0.2,0.4,0.3,0.5c0.2,0.1,0.3,0.2,0.5,0.2c0.5,0,1.1-0.4,1.8-1.2c0.6-0.7,2.1-2.7,2.2-3c0,0,0-0.1,0-0.1
	c0-0.2-0.2-0.4-0.5-0.5c-0.3,0-0.3,0-0.8,0.6c-1.6,2.3-2.5,3.3-2.5,2.7c0-0.4,0.3-1.7,0.8-3c0.5-1.5,0.5-1.7,0.1-1.9
	C214.9,9.6,214.8,9.6,214.7,9.6z M213,10.9c0.2,0,0.1,0.2-0.6,0.8c-0.9,0.8-1.3,1.1-1.3,0.9c0-0.2,0.2-0.5,0.7-1
	c0.4-0.4,0.7-0.6,1.1-0.7C212.9,10.9,212.9,10.9,213,10.9L213,10.9z"/>
<path class="st0" d="M217.1,15.1c0.2,0,0.5-0.1,0.7-0.2c0.4-0.3,1-1,2.3-2.9c0.6-0.9,1.1-1.6,1.1-1.5c0,0-0.1,0.5-0.3,1.1
	c-0.4,1.5-0.3,2.2,0.4,2.3c0.4,0.1,0.9-0.2,1.7-0.9c0.4-0.3,0.7-0.6,0.7-0.6s0.1,0.2,0.1,0.5c0,0.7,0.1,1.1,0.5,1.4
	c0.4,0.4,1.2,0.3,2.8-1.1c0.2-0.2,0.6-0.5,0.9-0.8c0.1-0.1,0.1-0.2,0.1-0.3c0-0.4-0.3-0.8-0.8-0.3l-0.5,0.4c-0.4,0.3-1.1,1-1.3,1.1
	c-0.4,0.2-0.4,0.2-0.4-0.7c0-1-0.3-1.4-0.9-1.4c-0.4,0-0.7,0.2-1.4,0.8c-0.4,0.3-0.7,0.5-0.7,0.5c0,0,0.2-0.7,0.4-1.5
	c0.7-2.2,0.7-2.6,0.1-2.8c-0.1,0-0.1,0-0.2,0c-0.5,0-1.2,0.8-2.9,3.3c-0.6,0.9-1.3,1.9-1.4,2l-0.3,0.3l0.1-0.4c0.1-0.5,0.6-2,1-3.1
	c0.2-0.5,0.4-0.9,0.4-1c0-0.4-0.6-0.6-0.9-0.3c-0.3,0.4-1.3,3-1.5,4.2c-0.1,0.4-0.1,0.8-0.1,1c0,0.4,0.1,0.7,0.3,0.9
	C216.8,15,216.9,15.1,217.1,15.1L217.1,15.1z M232.9,16.3c0.4,0,1-0.3,1.7-0.9c0.6-0.5,2.3-2.8,2.7-3.4c0-0.1,0.1-0.2,0.1-0.3
	c0-0.3-0.3-0.6-0.7-0.5c-0.1,0-0.5,0.5-0.9,1c-0.8,1-2.4,2.9-2.6,2.8c-0.1,0-0.1-0.1-0.1-0.6c0.1-0.7,0.3-1.7,0.8-3
	c0.2-0.7,0.4-1.2,0.4-1.3c-0.1-0.3-0.4-0.5-0.7-0.4c-0.2,0.1-0.3,0.3-0.6,0.9c-0.7,1.8-1,3.1-1,4c0,0.7,0.2,1.1,0.6,1.3
	C232.6,16.2,232.7,16.3,232.9,16.3L232.9,16.3z M234.8,8.6c0-0.3-0.2-0.5-0.5-0.5c-0.1,0-0.1,0-0.2,0.1c-0.4,0.2-0.4,0.5-0.2,0.8
	C234.2,9.2,234.8,9,234.8,8.6z"/>
<path class="st0" d="M236.7,15c0.5,0,1.2-0.7,2.5-2.4c1-1.3,1.7-2,1.7-2c0,0,0,0.5-0.1,1c-0.3,1.7-0.2,2.4,0.4,2.7
	c0.3,0.2,0.4,0.2,0.8,0.1c0.4-0.1,1.2-0.5,2.8-2.3c0.1-0.1,0.1-0.2,0.1-0.3c0-0.4-0.3-0.8-0.7-0.5c-0.1,0.1-0.2,0.2-0.4,0.4
	c-0.7,0.7-1.7,1.6-1.9,1.6c-0.2,0-0.1-0.4,0.1-1.7c0.1-0.6,0.2-1.3,0.2-1.5c0-0.7-0.5-1.1-1.1-0.9c-0.7,0.2-1.5,1-3.2,3.3
	c-0.4,0.5-0.7,0.9-0.7,0.8c0-0.1,0.4-1.6,0.8-2.8c0.2-0.5,0.3-1.1,0.3-1.2c0-0.3-0.2-0.5-0.5-0.5c0,0,0,0,0,0
	c-0.1,0-0.3,0.1-0.4,0.2c-0.2,0.2-1.1,2.9-1.3,3.9c-0.1,0.4-0.1,0.7-0.1,1c0,0.5,0.1,0.8,0.4,1C236.5,15,236.6,15,236.7,15z
	 M250.3,17.4c0.8,0,1.6-0.5,2.9-1.8c1.4-1.4,3.2-3.6,3.2-3.9c0-0.3-0.3-0.5-0.5-0.5c-0.2,0-0.4,0.2-1.2,1.2
	c-1.9,2.3-3.9,4.1-4.4,3.9c-0.1-0.1-0.2-0.2-0.1-1c0-0.6,0.1-1.2,0.3-1.8c0.4-1.3,1.8-5.1,2.3-6.3l0.5-1.1l0.4-0.1
	c0.2,0,0.8-0.1,1.4-0.1c1.1,0,1.4-0.1,1.4-0.5c0-0.5-0.2-0.6-1.5-0.6h-1.2l0.1-0.2c0.1-0.2,0.2-0.5,0.3-0.7c0.1-0.3,0.3-0.6,0.3-0.7
	c0-0.3-0.2-0.5-0.5-0.5c0,0-0.1,0-0.1,0c-0.3,0-0.3,0.1-0.8,1.1c-0.4,0.8-0.6,1.1-0.7,1.1c-0.1,0-0.6,0.1-1.1,0.2
	c-1.2,0.2-1.5,0.3-1.7,0.6c-0.1,0.2-0.1,0.3,0,0.5c0.1,0.2,0.2,0.2,0.6,0.2c0.4,0,0.7-0.1,1.1-0.2c0.3-0.1,0.6-0.1,0.6-0.1
	c0,0-0.1,0.5-0.4,1.1c-1.1,2.5-2.3,6.5-2.5,7.9c0,0.1,0,0.3,0,0.4c0,0.6,0.2,1.2,0.5,1.5c0.2,0.2,0.4,0.3,0.6,0.3
	C250.1,17.4,250.2,17.4,250.3,17.4L250.3,17.4z"/>
<path class="st0" d="M255.2,16c0.2,0,0.6-0.1,0.7-0.7c0.1-0.6,2.2-3.8,3-4.7c0.5-0.5,0.5-0.4,0,1c-0.4,1.4-0.6,2.4-0.5,2.8
	c0.1,0.4,0.5,1,0.8,1c0.7,0,1.7-0.7,3.1-2.4c0.5-0.6,0.8-1,0.8-1.2c0-0.5-0.5-0.7-0.9-0.4c-0.1,0.1-0.5,0.5-0.8,0.9
	c-0.7,0.9-1.7,1.8-1.9,1.8c-0.2,0-0.1-0.4,0.4-2.3c0.5-1.9,0.6-2.4,0.2-2.8c-0.2-0.2-0.3-0.3-0.5-0.3c-0.6,0-1.5,0.8-2.5,2.2
	c-0.3,0.4-0.5,0.7-0.5,0.7c-0.1,0,0.6-2.7,1.1-4.6c0.2-0.6,0.6-1.9,0.9-2.8c0.3-1,0.6-1.8,0.5-1.9c0-0.2-0.3-0.4-0.6-0.4
	c0,0-0.1,0-0.1,0c-0.2,0.1-0.3,0.2-0.8,1.7c-1.2,3.5-1.9,6-2.7,9.8c-0.2,1-0.3,1.5-0.3,1.8c0,0.2,0.1,0.3,0.2,0.4
	C254.9,15.9,255.1,16,255.2,16L255.2,16z"/>
<path class="st0" d="M264.5,9.7L264.5,9.7c-1.2,0-2.7,1.8-3,3.6c0,0.2-0.1,0.5-0.1,0.7c0,1,0.5,1.7,1.4,1.9c0.1,0,0.3,0,0.4,0
	c1.3,0,3.1-1.1,5.1-3c0.8-0.8,0.9-0.9,0.9-1.2c0-0.3-0.3-0.6-0.6-0.5c-0.1,0-0.6,0.4-1.1,0.9c-1.7,1.6-3.1,2.5-4.1,2.6
	c-0.4,0-0.6,0-0.7-0.2c-0.2-0.2-0.3-0.5-0.2-0.8l0.8-0.4c1.4-0.7,2.2-1.6,2.2-2.6c0-0.6-0.2-0.9-0.7-1
	C264.7,9.7,264.6,9.7,264.5,9.7z M264.3,10.9c0.4,0-0.5,1.1-1,1.4c-0.4,0.2-0.4,0.1-0.1-0.3C263.4,11.6,264.2,10.9,264.3,10.9
	L264.3,10.9z M281,8.3c-1,0-1.8,0.9-1.8,2.1c0,0.6,0.2,1.1,0.7,1.7c0.3,0.3,1.4,0.9,1.7,0.9c0.2,0,0.1,0.2-0.2,0.9
	c-0.8,1.6-2.1,2.3-2.9,1.5c-0.3-0.3-0.5-0.6-0.8-1.7c-0.2-0.7-0.5-1.1-0.9-1.1c-0.3,0-0.8,0.3-1.5,1c-0.4,0.4-0.8,0.7-0.9,0.7
	c-0.2-0.1,0.1-1.3,0.8-2.6c0.5-0.9,0.5-1.2,0.1-1.4c-0.4-0.2-0.6,0-1,0.7c-0.7,1.3-1.1,2.4-1.1,3.2c0,0.2,0,0.3,0.1,0.4
	c0.2,0.5,0.5,0.8,0.9,0.8c0.5,0,0.9-0.2,1.6-0.8c0.9-0.8,0.8-0.8,1,0c0.4,1.2,0.9,1.8,1.7,2.1c0.2,0.1,0.4,0.1,0.6,0.1
	c0.4,0,0.8-0.1,1.2-0.3c0.8-0.4,1.8-1.5,2.3-2.8l0.2-0.5l0.6-0.1c1.3-0.1,2.7-0.7,2.8-1.1c0,0,0-0.1,0-0.1c0-0.1,0-0.2-0.1-0.3
	c-0.2-0.3-0.4-0.3-1.5,0.1c-0.4,0.2-0.9,0.3-1.1,0.3l-0.4,0v-0.7C283.1,9.6,282.2,8.3,281,8.3L281,8.3z M281,9.4
	c0.1,0,0.2,0,0.4,0.1c0.4,0.3,0.6,0.8,0.6,1.6c0,0.9,0,0.9-0.8,0.5c-0.6-0.3-0.9-0.7-0.9-1.3c0-0.4,0-0.5,0.3-0.7
	C280.7,9.5,280.9,9.4,281,9.4z"/>
<path class="st0" d="M287.3,9.5c-0.2,0-0.3,0-0.5,0.1c-0.2,0.1-0.4,0.3-0.6,0.6c-0.2,0.3-0.4,0.5-0.5,0.6c-0.1,0.1-0.3,0.5-0.4,0.9
	c-0.2,0.7-0.3,1.4-0.3,1.9c0,0.7,0.2,1.2,0.6,1.4c0.1,0.1,0.3,0.1,0.4,0.1c0.4,0,0.9-0.3,1.4-0.9l0.3-0.4l0.7-0.1
	c1.2-0.1,2.9-1.2,3.1-1.8c0-0.1,0.1-0.2,0.1-0.2c0-0.1,0-0.2-0.1-0.2c-0.2-0.3-0.6-0.2-1.2,0.3c-0.7,0.5-1.7,0.9-1.9,0.8
	c-0.1,0-0.1-0.1,0-0.5C288.8,10.6,288.3,9.5,287.3,9.5L287.3,9.5z M287.3,10.6c0.2,0,0.2,0.5,0.1,1.1c-0.2,0.7-0.4,0.6-0.5-0.1
	C286.8,11.2,287.1,10.7,287.3,10.6z M286.2,12.9c0.1,0,0.2,0.1,0.3,0.2c0.2,0.2,0.2,0.2,0,0.5c-0.3,0.4-0.4,0.3-0.4-0.1
	C286.1,13.1,286.1,12.9,286.2,12.9L286.2,12.9z"/>
<path class="st0" d="M290.7,16.6c0.1,0,0.2,0,0.4-0.1c0.3-0.2,0.8-0.9,1.8-2.8c1-1.9,1.6-3,2.4-3.9c0.9-1.1,1.6-1.7,1.3-1
	c-0.2,0.5,0,0.9,0.4,0.9c0.3,0,0.5-0.2,0.7-0.8c0.1-0.3,0.2-0.6,0.2-0.9c0-0.4-0.2-0.7-0.5-0.9c-0.1,0-0.2-0.1-0.3-0.1
	c-0.5,0-1.2,0.4-2,1.4c-1,1-2,2.7-3.1,4.8c-0.3,0.5-0.5,0.9-0.5,0.9c-0.1-0.1,0.4-1.6,1-3.1c0.6-1.7,0.6-1.8,0.2-2.1
	c-0.4-0.2-0.6,0.1-1.1,1.3c-1,2.6-1.5,4.2-1.5,5.1c0,0.5,0.1,0.8,0.4,1C290.5,16.6,290.6,16.6,290.7,16.6z M301.8,3.2
	c-0.6,0-1.5,0.8-2.3,2c-0.6,1-1.9,3.5-2.3,4.7c-0.6,1.6-0.9,3.1-0.9,4.3c0,1.1,0.3,2,0.8,2.3c0.2,0.1,0.5,0.2,0.8,0.2
	c0.6,0,1.4-0.3,2.2-1c1.1-0.9,3.1-3.3,3.1-3.8c0-0.3-0.2-0.5-0.5-0.5c-0.3,0-0.4,0.1-0.8,0.8c-1.3,2.1-3.2,3.6-3.9,3.5
	c-0.3,0-0.5-0.5-0.5-1.4c0-1.2,0-1.4,0.5-1.6c0.2-0.1,0.8-0.6,1.3-1.2c2.1-2.2,3.6-5,3.6-6.7C302.9,3.7,302.5,3.2,301.8,3.2
	L301.8,3.2z M301.7,4.4c0.1,0,0.1,0.9-0.1,1.4c-0.4,1.3-1.6,3.2-2.8,4.5c-0.3,0.4-0.6,0.6-0.7,0.6c-0.3,0,1.5-3.8,2.3-5.1
	C300.9,5.2,301.6,4.4,301.7,4.4L301.7,4.4z"/>
<path class="st0" d="M310.3,2.7c-0.2,0-0.4,0.2-0.5,0.4c-0.1,0.2-0.4,0.9-0.7,1.5c-0.7,1.9-1.8,3.9-2.6,5.2l-0.3,0.4l-0.5-0.2
	c-0.4-0.1-0.6-0.2-1-0.1c-1.1,0.2-2.4,1.3-3,2.4c-0.2,0.5-0.4,0.9-0.4,1.3c0,0.6,0.3,1,0.8,1.2c0.9,0.3,2.3-0.5,3.8-2.4
	c0.4-0.5,0.8-1,0.8-1c0,0-0.1,0.7-0.4,1.6c-0.4,1.6-0.8,4-0.8,4.3c0,0.1,0.1,0.2,0.2,0.3c0.1,0.1,0.3,0.2,0.4,0.2
	c0.3,0,0.5-0.3,0.7-1.2c0.7-4,1.7-7.3,3.4-11.4c0.6-1.4,0.7-1.8,0.7-2c0,0,0-0.1,0-0.1c-0.1-0.1-0.2-0.2-0.3-0.3
	C310.4,2.7,310.4,2.7,310.3,2.7L310.3,2.7z M305.2,11c0.2,0,0.3,0,0.3,0.1c0.1,0.2-1.5,1.9-2.2,2.4c-0.8,0.5-1.1,0.3-0.6-0.6
	c0.3-0.6,1-1.4,1.6-1.7C304.5,11.1,304.9,11,305.2,11z M315.7,18.2c0.2,0,0.3-0.1,0.4-0.2c0.2-0.2,0.2-0.4,0-0.7
	c-0.3-0.4-0.9-0.2-0.9,0.3c0,0.2,0.1,0.4,0.3,0.5C315.5,18.2,315.6,18.2,315.7,18.2z M316.7,15.6c0-0.1,0.4-1.4,0.9-3
	c0.5-1.6,0.9-3.3,1.4-4.9c0.7-2.4,1-3.3,1-3.7c0-0.1,0-0.1,0-0.2c-0.1-0.1-0.2-0.2-0.3-0.3c0,0-0.1,0-0.1,0c-0.3,0-0.5,0.3-0.7,1
	C318.6,4.9,318.3,6,318,7c-0.3,1-1,3.3-1.5,5.2c-1,3.4-1,3.7-0.7,3.9C316.2,16.1,316.5,16,316.7,15.6L316.7,15.6z"/>
</svg>
